<svg xmlns="http://www.w3.org/2000/svg" xmlns:xlink="http://www.w3.org/1999/xlink" viewBox="0 0 128 128"><style><![CDATA[.B{stroke:#000}.C{stroke-dashoffset:7.40788}.D{fill:#750000}.E{fill:#ff0026}.F{stroke-width:.378}.G{stroke-width:.945}.H{stroke-width:.756}]]></style><g class="B C"><path d="M59.762 88.783c-.728-4.269-1.138-10.478-2.373-12.379l.763-7.224-2.861-2.61-2.622-4.272-3.293-3.018-1.994 8.871c3.701 6.056 8.141 11.86 8.528 19.05z" class="D F"/><path d="M48.999 59.728c-9.029 1.121-21.972 4.123-23.554 12.963 7.959 1 15.946 2.112 21.938-4.573 1.334-2.507 3.027-4.884 1.616-8.39z" class="E G"/></g><path d="M27.268 69.287c16.936 4.954 19.268-4.964 21.181-9.147-9.47 1.567-17.052 3.612-21.181 9.147z" fill="#cf0026"/><g class="B C G"><path d="M28.625 10.75C-12.859 44.77 23.607 76.234 42.5 62c-2.882-5.525-3.664-11.189 3.375-17.375-16.534 12.174-37.667-2.16-17.25-33.875z" fill="#fff"/><path d="M45.476 44.813c2.256 1.028 4.538 1.994 7.601 1.061-5.691 4.921-5.504 8.826-3.933 14.098-2.629-.622-4.8 1.505-6.629 2.254-3.602-5.981-2.629-11.785 2.961-17.413z" class="D"/><path d="M45.918 59.971c-3.311-4.684-1.919-9.178 3.845-13.744" fill="none"/><path d="M52.438 46.188c3.93-2.233 8.023-2.663 12.188-2.312v56.688l-6.672-.075-1.056-2.963-3.209-3.65c.214-2.227.452-4.701 2-6.687-.005-6.952-5.312-12.893-8.437-19.25 1.119-2.466 2.513-4.805 1.938-8.062-1.701-4.761-1.616-9.395 3.25-13.687z" class="E"/></g><path d="M55.825 87.312c.21-1.217.481-2.313.948-3.015.458.857.634 2.136.705 3.574 2.657 1.411 4.72 1.998 6.978 1.556" fill="#b80000"/><g class="B C"><g stroke-width=".189"><path d="M49.747 66.937c1.73.843 3.553 1.596 3.647 4.012-2.158.11-3.304-1.334-3.647-4.012z" fill="#fff"/><path d="M62.169 79.087l-5.055-4.057-3.714-4.092-3.886-3.163c-1.268-1.062-1.419-.399-1.719.034l.997-2.441c.114 1.096.634 1.278 1.1 1.582 1.666.298 5.06 3.596 8.424 6.843a857.29 857.29 0 0 1 3.851 5.295zM59.57 93.756c-1.303 1.35-4.98 2.642-3.866-2.65.009 3.181 1.329 4.008 3.866 2.65zm1.24-2.14c-.866.807-4.384 2.649-4.595-1.824 3.006 1.622 3.555 1.554 4.595 1.824z"/><path d="M57.09 97.84c.058-.816 7.585-1.845 7.61-1.313" fill="none"/></g><g class="H"><path d="M57.647 98.979h6.877"/><path d="M43.182 46.683c-14.175 7.498-32.855-2.578-16.534-33.554-20.375 23.752-2.979 47.689 16.534 33.554z" class="D"/><path d="M10.698 49.99c-.072-10.169 1.366-14.714 3.307-17.214-.161 3.464-.52 7.012 1.07 9.726.461-15.513 8.118-24.273 13.13-31.414 1.955 1.638-24.133 14.58-17.506 38.903z" fill="#ff232f"/></g><path d="M59.556 61.516l-5.055-3.129c1.424-2.644.255-5.173-2.441-7.634l6.224-4.436-5.261 4.573c5.405 1.277 3.082 6.711 6.533 10.625z" class="F"/></g><path d="M65.853 43.653h6.108v57.078h-6.108zm8.347.748h6.167v34.29H74.2zm9.096 2.678h6.257v20.765h-6.257zm9.14 2.916h6.262V70.18h-6.262zm8.576-9.709h6.228v24.82h-6.228zm9.767-20.383h6.146v37.964h-6.146zm-7.549-9.045h5.623v12.873h-5.623z" class="B C E H"/><g fill="#fff" class="B C"><path d="M65.16 86.242a10.278 10.278 0 0 0 0 20.555 10.278 10.278 0 0 0 0-20.555zm0 2.318a7.89 7.89 0 1 1 0 15.781 7.89 7.89 0 1 1 0-15.781z" stroke-width=".763"/><path d="M71.329 106.386l10.111 9.783 3.508-3.476-10.261-9.829a10.63 10.63 0 0 1-3.358 3.522z" stroke-width=".685"/></g></svg>